# xmcd CD database file
#
# Track frame offsets:
#	150
#	18423
#	40313
#	57934
#	77514
#	92856
#	111062
#	128310
#	143529
#	158160
#	183247
#	207014
#	219764
#	233956
#	251608
#	267062
#
# Disc length: 3780 seconds
#
# Revision: 0
# Processed by: cddbd v1.5.1PL0 Copyright (c) Steve Scherf et al.
# Submitted via: CDex 1.51
#
DISCID=c50ec210
DTITLE=The Flying Pickets - A Compilation
DYEAR=1900
DGENRE=Jazz
TTITLE0=Space Oddity
TTITLE1=Smells like Teen Spirit
TTITLE2=Time after Time
TTITLE3=Under the bridge
TTITLE4=Only You
TTITLE5=Don´t dream is over
TTITLE6=Buffalo Soldier
TTITLE7=Englishman in New Yorl
TTITLE8=Groovin´
TTITLE9=Higher and Higher
TTITLE10=Purple Rain
TTITLE11=Sealed with a kiss
TTITLE12=Summer in the city
TTITLE13=You´ve lost that lovin feeling
TTITLE14=When you´re young and in love
TTITLE15=Who´s that girl?
EXTD=
EXTT0=
EXTT1=
EXTT2=
EXTT3=
EXTT4=
EXTT5=
EXTT6=
EXTT7=
EXTT8=
EXTT9=
EXTT10=
EXTT11=
EXTT12=
EXTT13=
EXTT14=
EXTT15=
PLAYORDER=
